<svg xmlns="http://www.w3.org/2000/svg" viewBox="0 0 48 48" width="18" height="18">
  <path fill="#25D366" d="M24 4C13 4 4 13 4 24c0 3.6 1 7 2.7 9.9L4 44l10.4-2.7C17.1 43 20.5 44 24 44c11 0 20-9 20-20S35 4 24 4z"/>
  <path fill="#fff" d="M35.2 28.5c-.5-.3-3.1-1.5-3.6-1.7-.5-.2-.8-.3-1.2.3-.3.5-1.3 1.7-1.6 2-.3.3-.6.4-1.1.1-3-1.5-5-2.7-7-6.1-.5-.9.5-.8 1.5-2.8.2-.4.1-.7-.1-1-.2-.3-1.2-2.8-1.6-3.9-.4-1-.8-1-1.2-1h-1c-.3 0-.8.1-1.3.6-.4.5-1.7 1.6-1.7 4s1.7 4.6 2 4.9c.2.3 3.4 5.2 8.2 7.3 4.8 2 4.8 1.4 5.7 1.3.9-.1 2.9-1.2 3.3-2.3.4-1.1.4-2.1.3-2.3-.2-.2-.5-.3-1-.6z"/>
</svg>
